<?xml version="1.0" encoding="utf-8"?>
<!-- Generator: Adobe Illustrator 22.0.0, SVG Export Plug-In . SVG Version: 6.00 Build 0)  -->
<svg version="1.1" id="Calque_1" xmlns="http://www.w3.org/2000/svg" xmlns:xlink="http://www.w3.org/1999/xlink" x="0px" y="0px"
	 viewBox="0 0 100 98.1" style="enable-background:new 0 0 100 98.1;" xml:space="preserve">
<path d="M70.5,26.7c4.2,0,7.6-3.4,7.6-7.6V8.3c0-4.2-3.4-7.6-7.6-7.6s-7.6,3.4-7.6,7.6v10.8C62.9,23.3,66.3,26.7,70.5,26.7z
	 M29.5,26.7c4.2,0,7.6-3.4,7.6-7.6V8.3c0-4.2-3.4-7.6-7.6-7.6s-7.6,3.4-7.6,7.6v10.8C21.9,23.3,25.3,26.7,29.5,26.7z M97.8,13.2
	H80.4v5.9c0,5.6-4.5,10.1-10.1,10.1s-10.1-4.5-10.1-10.1v-5.9H39.4v5.9c0,5.6-4.5,10.1-10.1,10.1s-10.1-4.5-10.1-10.1v-5.9h-17
	c-0.6,0-1,0.4-1,1V36h97.6V14.2C98.8,13.6,98.4,13.2,97.8,13.2z M1.2,95.7c0,0.6,0.4,1,1,1h95.6c0.6,0,1-0.4,1-1V40H1.2V95.7z
	 M72.4,51.6h12.8v12.8H72.4V51.6z M72.4,69.8h12.8v12.8H72.4V69.8z M53.2,51.6H66v12.8H53.2V51.6z M53.2,69.8H66v12.8H53.2V69.8z
	 M34,51.6h12.8v12.8H34V51.6z M34,69.8h12.8v12.8H34V69.8z M14.8,51.6h12.8v12.8H14.8V51.6z M14.8,69.8h12.8v12.8H14.8V69.8z"/>
</svg>
