<?xml version="1.0" encoding="utf-8"?>
<!-- Generator: Adobe Illustrator 22.0.0, SVG Export Plug-In . SVG Version: 6.00 Build 0)  -->
<svg version="1.1" id="Calque_1" xmlns="http://www.w3.org/2000/svg" xmlns:xlink="http://www.w3.org/1999/xlink" x="0px" y="0px"
	 viewBox="0 0 85.4 52.8" style="enable-background:new 0 0 85.4 52.8;" xml:space="preserve">
<g>
	<path d="M3.5,51.6c-1.5,0-2.7-1.2-2.7-2.7c0-1.5,1.2-2.7,2.7-2.7h79c1.5,0,2.7,1.2,2.7,2.7c0,1.5-1.2,2.7-2.7,2.7H3.5z"/>
</g>
<path d="M77.7,43.3H8.3C8.3,25.1,22.4,10,40.6,8.7c-0.4-0.3-0.7-0.6-0.9-0.9c-1.4-1.9-0.9-4.5,0.9-5.8C42.4,0.6,45,1,46.4,2.9
	c1.4,1.9,0.9,4.5-0.9,5.8C63.6,10,77.7,25.1,77.7,43.3z M13,38.9h15.8c0.3-9.9,4.7-19.3,12.1-25.9C26.6,14.1,15,24.8,13,38.9z"/>
</svg>
