<?xml version="1.0" encoding="utf-8"?>
<!-- Generator: Adobe Illustrator 22.0.0, SVG Export Plug-In . SVG Version: 6.00 Build 0)  -->
<svg version="1.1"
	 id="Calque_1" xmlns:cc="http://creativecommons.org/ns#" xmlns:dc="http://purl.org/dc/elements/1.1/" xmlns:inkscape="http://www.inkscape.org/namespaces/inkscape" xmlns:rdf="http://www.w3.org/1999/02/22-rdf-syntax-ns#" xmlns:sodipodi="http://sodipodi.sourceforge.net/DTD/sodipodi-0.dtd" xmlns:svg="http://www.w3.org/2000/svg"
	 xmlns="http://www.w3.org/2000/svg" xmlns:xlink="http://www.w3.org/1999/xlink" x="0px" y="0px" viewBox="0 0 89.5 88.5"
	 style="enable-background:new 0 0 89.5 88.5;" xml:space="preserve">
<style type="text/css">
	.st0{stroke:#000000;stroke-miterlimit:10;}
</style>
<g transform="translate(0,-952.36218)">
	<path class="st0" d="M55.5,955.9c-18.4,0-34.1,12.2-39.2,29c-3,0-6.1,0-9.1,0c-1.6,0.1-2.9,1.6-2.8,3.2s1.6,2.9,3.2,2.8H15
		c-0.3,2-0.4,4-0.4,6s0.1,4,0.4,6c-2.6,0-5.2,0-7.8,0c-1.6,0.1-2.9,1.6-2.8,3.2s1.6,2.9,3.2,2.8h8.8c5.1,16.8,20.8,29,39.2,29
		c13.3,0,22.3-6.1,30.1-13.9c1.2-1.1,1.3-3.2,0.1-4.4c-1.2-1.2-3.3-1.1-4.4,0.2c-7.4,7.4-14.3,12.1-25.8,12.1
		c-15.2,0-28.1-9.6-32.9-23h34.9c1.6,0,3-1.4,3-3s-1.5-3-3-3H21c-0.3-1.9-0.5-4-0.5-6c0-2.1,0.2-4,0.5-6h36.5c1.6,0,3-1.4,3-3
		s-1.5-3-3-3H22.6c4.9-13.4,17.7-23,32.9-23c11.6,0,18.5,4.7,25.8,12.1c1.1,1.2,3.2,1.3,4.4,0.2c1.2-1.2,1.1-3.3-0.1-4.4
		C77.8,961.9,68.8,955.9,55.5,955.9z"/>
</g>
</svg>
