<?xml version="1.0" encoding="utf-8"?>
<!-- Generator: Adobe Illustrator 22.0.0, SVG Export Plug-In . SVG Version: 6.00 Build 0)  -->
<svg version="1.1" xmlns="http://www.w3.org/2000/svg" xmlns:xlink="http://www.w3.org/1999/xlink" x="0px" y="0px"
	 viewBox="0 0 171.7 183.6" style="enable-background:new 0 0 171.7 183.6;" xml:space="preserve">
<style type="text/css">
	.st0{stroke:#000000;stroke-width:6;stroke-linecap:round;stroke-linejoin:round;stroke-miterlimit:10;}
	.st1{stroke:#000000;stroke-miterlimit:10;}
	.st2{stroke:#000000;stroke-width:3;stroke-miterlimit:10;}
</style>
<g id="Calque_2">
</g>
<g id="Calque_1">
	<g>
		<g>
			<path class="st0" d="M155,87.7l-14.1-17.1l-7.1-8.5l-7.1-8.5l-7.1-8.5l-7.1-8.5l-7.1-8.5l-7.1-8.5L85.5,4L72.7,19.5l-7,8.5
				l-7,8.5l-7,8.5l-7,8.5l-7,8.5l-7.1,8.5L16.4,87.7l-9,10.9h15.6l1,6.1l1.4,8.5l1.4,8.5l1.4,8.5l2.8,17.1l1.4,8.5l1.4,8.5l1.5,9.5
				h29.6v-62c0-2.7,0.9-5.2,2.4-7.2c2.2-2.9,5.7-4.8,9.6-4.8h17.7c3.9,0,7.4,1.9,9.6,4.8c1.5,2,2.4,4.5,2.4,7.2v62H136l1.5-9.5
				l1.4-8.5l1.4-8.5l2.8-17.1l1.4-8.5l1.4-8.5l1.4-8.5l1-6.1H164L155,87.7z M77,73.3c0-0.9,0.2-1.8,0.4-2.7c1.1-3.5,4.4-6,8.2-6
				s7.1,2.5,8.2,6c0.3,0.8,0.4,1.7,0.4,2.7c0,2.3-0.9,4.3-2.3,5.9c-1.6,1.7-3.8,2.8-6.4,2.8s-4.8-1.1-6.4-2.8
				C77.9,77.6,77,75.6,77,73.3z"/>
		</g>
	</g>
	<g>
		<g>
			<path class="st1" d="M37,174"/>
		</g>
		<g>
			<path class="st2" d="M85.5,174"/>
		</g>
		<g>
			<path d="M105.5,29H65.7c-0.6,0-1-0.4-1-1s0.4-1,1-1h39.8c0.6,0,1,0.4,1,1S106,29,105.5,29z"/>
		</g>
		<g>
			<path d="M112.5,37.5H58.7c-0.6,0-1-0.4-1-1s0.4-1,1-1h53.9c0.6,0,1,0.4,1,1S113.1,37.5,112.5,37.5z"/>
		</g>
		<g>
			<path d="M119.6,46.1h-68c-0.6,0-1-0.4-1-1s0.4-1,1-1h68c0.6,0,1,0.4,1,1S120.2,46.1,119.6,46.1z"/>
		</g>
		<g>
			<path d="M126.7,54.6H44.6c-0.6,0-1-0.4-1-1s0.4-1,1-1h82.1c0.6,0,1,0.4,1,1S127.2,54.6,126.7,54.6z"/>
		</g>
		<g>
			<path d="M133.8,63.1H37.5c-0.6,0-1-0.4-1-1s0.4-1,1-1h96.2c0.6,0,1,0.4,1,1S134.3,63.1,133.8,63.1z"/>
		</g>
		<g>
			<path d="M77.5,71.6h-47c-0.6,0-1-0.4-1-1s0.4-1,1-1h47c0.6,0,1,0.4,1,1S78,71.6,77.5,71.6z"/>
		</g>
		<g>
			<path d="M140.8,71.6H93.9c-0.6,0-1-0.4-1-1s0.4-1,1-1h46.9c0.6,0,1,0.4,1,1S141.4,71.6,140.8,71.6z"/>
		</g>
		<g>
			<path d="M147.9,80.2H92.1c-0.6,0-1-0.4-1-1s0.4-1,1-1h55.8c0.6,0,1,0.4,1,1S148.4,80.2,147.9,80.2z"/>
		</g>
		<g>
			<path d="M79.3,80.2H23.4c-0.6,0-1-0.4-1-1s0.4-1,1-1h55.9c0.6,0,1,0.4,1,1S79.9,80.2,79.3,80.2z"/>
		</g>
		<g>
			<path d="M155,88.7H16.4c-0.6,0-1-0.4-1-1s0.4-1,1-1H155c0.6,0,1,0.4,1,1S155.5,88.7,155,88.7z"/>
		</g>
		<g>
			<path d="M161.1,97.2h-151c-0.6,0-1-0.4-1-1s0.4-1,1-1h151c0.6,0,1,0.4,1,1S161.6,97.2,161.1,97.2z"/>
		</g>
		<g>
			<path d="M147.2,105.8H104c-0.6,0-1-0.4-1-1s0.4-1,1-1h43.2c0.6,0,1,0.4,1,1S147.7,105.8,147.2,105.8z"/>
		</g>
		<g>
			<path d="M67.1,105.8H23.9c-0.6,0-1-0.4-1-1s0.4-1,1-1h43.2c0.6,0,1,0.4,1,1S67.6,105.8,67.1,105.8z"/>
		</g>
		<g>
			<path d="M145.8,114.3h-39.4c-0.6,0-1-0.4-1-1s0.4-1,1-1h39.4c0.6,0,1,0.4,1,1S146.3,114.3,145.8,114.3z"/>
		</g>
		<g>
			<path d="M64.7,114.3H25.3c-0.6,0-1-0.4-1-1s0.4-1,1-1h39.4c0.6,0,1,0.4,1,1S65.2,114.3,64.7,114.3z"/>
		</g>
		<g>
			<path d="M144.4,122.8h-38.1c-0.6,0-1-0.4-1-1s0.4-1,1-1h38.1c0.6,0,1,0.4,1,1S145,122.8,144.4,122.8z"/>
		</g>
		<g>
			<path d="M64.7,122.8h-38c-0.6,0-1-0.4-1-1s0.4-1,1-1h38c0.6,0,1,0.4,1,1S65.2,122.8,64.7,122.8z"/>
		</g>
		<g>
			<path d="M143,131.3h-36.7c-0.6,0-1-0.4-1-1s0.4-1,1-1H143c0.6,0,1,0.4,1,1S143.6,131.3,143,131.3z"/>
		</g>
		<g>
			<path d="M64.7,131.3H28c-0.6,0-1-0.4-1-1s0.4-1,1-1h36.6c0.6,0,1,0.4,1,1S65.2,131.3,64.7,131.3z"/>
		</g>
		<g>
			<path d="M140.3,148.4h-33.9c-0.6,0-1-0.4-1-1s0.4-1,1-1h33.9c0.6,0,1,0.4,1,1S140.8,148.4,140.3,148.4z"/>
		</g>
		<g>
			<path d="M64.7,148.4H30.8c-0.6,0-1-0.4-1-1s0.4-1,1-1h33.9c0.6,0,1,0.4,1,1S65.2,148.4,64.7,148.4z"/>
		</g>
		<g>
			<path d="M138.9,156.9h-32.6c-0.6,0-1-0.4-1-1s0.4-1,1-1h32.6c0.6,0,1,0.4,1,1S139.5,156.9,138.9,156.9z"/>
		</g>
		<g>
			<path d="M64.7,156.9H32.2c-0.6,0-1-0.4-1-1s0.4-1,1-1h32.5c0.6,0,1,0.4,1,1S65.2,156.9,64.7,156.9z"/>
		</g>
		<g>
			<path d="M137.5,165.5h-31.2c-0.6,0-1-0.4-1-1s0.4-1,1-1h31.2c0.6,0,1,0.4,1,1S138.1,165.5,137.5,165.5z"/>
		</g>
		<g>
			<path d="M64.7,165.5H33.6c-0.6,0-1-0.4-1-1s0.4-1,1-1h31.1c0.6,0,1,0.4,1,1S65.2,165.5,64.7,165.5z"/>
		</g>
		<g>
			<path d="M141.7,139.9h-35.3c-0.6,0-1-0.4-1-1s0.4-1,1-1h35.3c0.6,0,1,0.4,1,1S142.2,139.9,141.7,139.9z"/>
		</g>
		<g>
			<path d="M64.7,139.9H29.4c-0.6,0-1-0.4-1-1s0.4-1,1-1h35.3c0.6,0,1,0.4,1,1S65.2,139.9,64.7,139.9z"/>
		</g>
	</g>
</g>
</svg>
