<?xml version="1.0" encoding="utf-8"?>
<!-- Generator: Adobe Illustrator 22.0.0, SVG Export Plug-In . SVG Version: 6.00 Build 0)  -->
<svg version="1.1" xmlns="http://www.w3.org/2000/svg" xmlns:xlink="http://www.w3.org/1999/xlink" x="0px" y="0px"
	 viewBox="0 0 100 87" style="enable-background:new 0 0 100 87;" xml:space="preserve">
<g id="Calque_2">
</g>
<g id="Calque_1">
	<g>
		<polygon points="15.9,38.7 1,83.9 23.4,76.9 30.8,31.9 		"/>
		<polygon points="25.9,77 48.7,84.1 48.7,38.5 33.4,31.6 		"/>
		<path d="M65.8,44.3l-5.1-10.1l-9.4,4.3v45.6L74.1,77l-5-30.2C67.7,46.6,66.5,45.7,65.8,44.3z"/>
		<path d="M84.1,38.7l-5.8-2.6c-2.2,4.3-4.1,8.1-4.3,8.3c-0.5,1-1.4,1.8-2.4,2.2l5,30.3l22.4,7L84.1,38.7z"/>
		<path d="M68.1,43.2c0.8,1.5,3,1.5,3.7,0c0,0,8.8-17.1,10.8-21.2c2-4,2.1-8.6,0-12.7c-3.5-7-12-9.8-19-6.3s-9.7,12.3-6.3,19
			C60.7,28.8,68.1,43.2,68.1,43.2z M70,8.3c4.1,0,7.4,3.3,7.4,7.4c0,4.1-3.3,7.4-7.4,7.4c-4.1,0-7.4-3.3-7.4-7.4S65.9,8.3,70,8.3z"
			/>
	</g>
</g>
</svg>
