<?xml version="1.0" encoding="utf-8"?>
<!-- Generator: Adobe Illustrator 22.0.0, SVG Export Plug-In . SVG Version: 6.00 Build 0)  -->
<svg version="1.1" id="Calque_1" xmlns:sketch="http://www.bohemiancoding.com/sketch/ns"
	 xmlns="http://www.w3.org/2000/svg" xmlns:xlink="http://www.w3.org/1999/xlink" x="0px" y="0px" viewBox="0 0 29.3 26.7"
	 style="enable-background:new 0 0 29.3 26.7;" xml:space="preserve">
<title>business_048-presentation-board-chart-report-analytic</title>
<desc>Created with Sketch.</desc>
<g sketch:type="MSPage">
	<g transform="translate(-360.000000, -225.000000)" sketch:type="MSArtboardGroup">
		<g transform="translate(362.000000, 226.000000)" sketch:type="MSLayerGroup">
			<path sketch:type="MSShapeGroup" d="M11.3,1.2c0-0.3,0.2-0.5,0.5-0.5h2c0.3,0,0.5,0.2,0.5,0.5v1.5h-3V1.2z"/>
			<path sketch:type="MSShapeGroup" d="M12.3,1.7h1V0.2c0-0.3-0.2-0.5-0.5-0.5s-0.5,0.2-0.5,0.5V1.7z"/>
			<path sketch:type="MSShapeGroup" d="M25.8,3.2c0.3,0,0.5-0.3,0.5-0.8s-0.2-0.8-0.5-0.8h-26c-0.3,0-0.5,0.3-0.5,0.8
				s0.2,0.8,0.5,0.8H25.8z"/>
			<path d="M0.3,4.1v14h25v-14H0.3z M6.8,16.2c-2.2,0-4-1.8-4-4c0-2.2,1.8-4,4-4c0.3,0,0.5,0.2,0.5,0.5v3h3c0.3,0,0.5,0.2,0.5,0.5
				C10.8,14.4,9,16.2,6.8,16.2z M12.3,10.7H8.8c-0.3,0-0.5-0.2-0.5-0.5V6.7c0-0.3,0.2-0.5,0.5-0.5c2.2,0,4,1.8,4,4
				C12.8,10.5,12.6,10.7,12.3,10.7z M21.8,14.7h-7c-0.3,0-0.5-0.2-0.5-0.5c0-0.3,0.2-0.5,0.5-0.5h7c0.3,0,0.5,0.2,0.5,0.5
				C22.3,14.5,22.1,14.7,21.8,14.7z M21.8,11.6h-7c-0.3,0-0.5-0.2-0.5-0.5c0-0.3,0.2-0.5,0.5-0.5h7c0.3,0,0.5,0.2,0.5,0.5
				C22.3,11.3,22.1,11.6,21.8,11.6z M21.8,8.4h-7c-0.3,0-0.5-0.2-0.5-0.5c0-0.3,0.2-0.5,0.5-0.5h7c0.3,0,0.5,0.2,0.5,0.5
				C22.3,8.2,22.1,8.4,21.8,8.4z"/>
			<path sketch:type="MSShapeGroup" d="M25.8,20.7c0.3,0,0.5-0.3,0.5-0.7c0-0.4-0.2-0.7-0.5-0.7h-26c-0.3,0-0.5,0.3-0.5,0.7
				c0,0.4,0.2,0.7,0.5,0.7H25.8z"/>
			<path sketch:type="MSShapeGroup" d="M6.4,23.9c-0.2,0.2-0.1,0.5,0.1,0.7s0.5,0.1,0.7-0.1l3-4c0.2-0.2,0.1-0.5-0.1-0.7
				s-0.5-0.1-0.7,0.1L6.4,23.9z"/>
			<path sketch:type="MSShapeGroup" d="M18.4,24.5c0.2,0.2,0.5,0.3,0.7,0.1c0.2-0.2,0.3-0.5,0.1-0.7l-3-4c-0.2-0.2-0.5-0.3-0.7-0.1
				c-0.2,0.2-0.3,0.5-0.1,0.7L18.4,24.5z"/>
		</g>
	</g>
</g>
</svg>
