<?xml version="1.0" encoding="utf-8"?>
<!-- Generator: Adobe Illustrator 22.0.0, SVG Export Plug-In . SVG Version: 6.00 Build 0)  -->
<svg version="1.1" id="Calque_1" xmlns="http://www.w3.org/2000/svg" xmlns:xlink="http://www.w3.org/1999/xlink" x="0px" y="0px"
	 viewBox="0 0 62.8 80.5" style="enable-background:new 0 0 62.8 80.5;" xml:space="preserve">
<style type="text/css">
	.st0{fill:none;}
</style>
<rect x="7" y="-4.6" class="st0" width="51.8" height="46.4"/>
<path d="M48.4,29.8c-0.9-2.4-0.2-3.8,0.2-7.8C49.8,9.8,42.5,1,31.8,1C20,1,13.6,9.8,14.9,22c0.3,4,1,5.3,0.2,7.8
	C14.2,32.2,8.7,36,8.7,36s7.6,0.7,10.9,1.7c2.2,1.7,6.7,4.7,12.2,4.7c4.7,0,10-2.9,12.2-4.7c3.3-0.9,10.9-1.7,10.9-1.7
	S49.3,32.2,48.4,29.8z"/>
<path d="M22,45.8c5.6,3.1,14.8,3.9,20.5,0c12.1,0.3,18.7,19.9,19.1,34.7c-20.4,0.6-38.2,0.7-59.7,0C2.2,65.8,8.4,46.5,22,45.8z"/>
</svg>
