<?xml version="1.0" encoding="utf-8"?>
<!-- Generator: Adobe Illustrator 22.0.0, SVG Export Plug-In . SVG Version: 6.00 Build 0)  -->
<svg version="1.1" id="Calque_1" xmlns="http://www.w3.org/2000/svg" xmlns:xlink="http://www.w3.org/1999/xlink" x="0px" y="0px"
	 viewBox="0 0 100 100" style="enable-background:new 0 0 100 100;" xml:space="preserve">
<g>
	<path d="M21.9,11.2C21.9,5,26.9,0,33,0c6.2,0,11.2,5,11.2,11.2s-5,11.2-11.2,11.2C26.9,22.4,21.9,17.4,21.9,11.2z M93.9,4.1
		L72.8,26.9c0,0,0.1,0.1,0.1,0.1c1.4,1.9,1,4.5-0.9,5.9L57.2,44c-1.9,1.4-4.5,1-5.9-0.9l-7.2-8.8V95c0,2.8-2.3,5-5.1,5
		S34,97.7,34,95V65.7h-1.9V95c0,2.8-2.3,5-5.1,5c-2.8,0-5.1-2.3-5.1-5V61.2c-0.4,0.8-1.1,1.5-2,1.8c0,0,0,0,0,0
		c-2.1,0.8-4.5-0.2-5.3-2.3L6,44.1c-0.5-1.3-0.3-2.7,0.4-3.8l8.7-10.8c3.3-4.6,6.9-5.3,9.5-5.3h16.9c2.6,0,6.2,0.7,9.5,5.3l4.3,5.4
		L67,26.1c1-0.7,2.1-0.9,3.2-0.7L91.7,2.1c0.6-0.6,1.5-0.6,2.1-0.1C94.4,2.5,94.5,3.5,93.9,4.1z M22,34.3L14.8,43L22,57.3V34.3z"/>
</g>
</svg>
